REM DIRINDEX 1
REM DIRNAME cjc069
TITLE ""
FILE "Disk1Track25.mp3" MP3
  TRACK 01 AUDIO
    TITLE "1:cjc069_0170"
    INDEX 01 00:00:00
  TRACK 02 AUDIO
    TITLE "1:cjc069_0171"
    INDEX 01 00:09:57
  TRACK 03 AUDIO
    TITLE "1:cjc069_0172"
    INDEX 01 00:17:61
  TRACK 04 AUDIO
    TITLE "0:"
    INDEX 01 00:30:52
